# xmcd
#
# Track frame offsets: 
#        150
#        21081
#        34400
#        52566
#        66766
#        91034
#        102741
#        120204
#        138604
#        150116
#        163604
#        184473
#        201486
#
# Disc length: 2835 seconds
#
# Revision: 0
# Processed by: cddbd v1.4PL0 Copyright (c) Steve Scherf et al.
# Submitted via: ExactAudioCopy v0.90b4
#
DISCID=a70b110d
DTITLE=Goin' Down Slow - Local Blues Dealer
DYEAR=2001
DGENRE=Blues
TTITLE0=Dealin' Blues
TTITLE1=Local blues dealer
TTITLE2=Out of the blue
TTITLE3=Big water ride
TTITLE4=Broke up with my woman
TTITLE5=Blues for the misheard
TTITLE6=Dis' dirty bein'
TTITLE7=Communication
TTITLE8=Is it possible
TTITLE9=Blues tent blues
TTITLE10=Thunderin
TTITLE11=For grandma - To dad
TTITLE12=Blues junction
EXTD=
EXTT0=
EXTT1=
EXTT2=
EXTT3=
EXTT4=
EXTT5=
EXTT6=
EXTT7=
EXTT8=
EXTT9=
EXTT10=
EXTT11=
EXTT12=
PLAYORDER=
